# xmcd
#
# Track frame offsets:
#       150
#       23922
#       37962
#       60080
#       78460
#       104195
#       127742
#       147177
#       164322
#       185587
#       205165
#       232422
#
# Disc length: 3579 seconds
#
# Revision: 0
# Processed by: cddbd v1.5.2PL0 Copyright (c) Steve Scherf et al.
# Submitted via: WaveLab 6.11
#
DISCID=a10df90c
DTITLE=Cecil Parker - Chirpin
DYEAR=2004
DGENRE=Funk - Soul
TTITLE0=Get On Up
TTITLE1=Love Is
TTITLE2=I Think It's Time (To Let You In My Life)
TTITLE3=You Were There
TTITLE4=I've Been Missing Your Lovin
TTITLE5=What It Is
TTITLE6=Your Love Keeps Me Going
TTITLE7=You Put Some Fun In My Life
TTITLE8=I Belong Again
TTITLE9=Don't Stop Now
TTITLE10=Get Up And Shake It
TTITLE11=Really Really Love You
EXTD=
EXTT0=
EXTT1=
EXTT2=
EXTT3=
EXTT4=
EXTT5=
EXTT6=
EXTT7=
EXTT8=
EXTT9=
EXTT10=
EXTT11=
PLAYORDER=
